HIERARCHY
ROOT root
{
	OFFSET 0.000000 0.000000 0.000000
	CHANNELS 6 Xposition Yposition Zposition Zrotation Yrotation Xrotation
	JOINT lhip
	{
		OFFSET 0.058581 -0.082280 -0.017664
		CHANNELS 3 Zrotation Yrotation Xrotation
		JOINT lknee
		{
			OFFSET 0.043451 -0.386469 0.008037
			CHANNELS 3 Zrotation Yrotation Xrotation
			JOINT lankle
			{
				OFFSET -0.014790 -0.426874 -0.037428
				CHANNELS 3 Zrotation Yrotation Xrotation
				JOINT ltoe
				{
					OFFSET 0.041054 -0.060286 0.122042
					CHANNELS 3 Zrotation Yrotation Xrotation
					End Site
					{
						OFFSET 0.000000 0.000000 0.000000
					}
				}
			}
		}
	}
	JOINT rhip
	{
		OFFSET -0.060310 -0.090513 -0.013543
		CHANNELS 3 Zrotation Yrotation Xrotation
		JOINT rknee
		{
			OFFSET -0.043257 -0.383688 -0.004843
			CHANNELS 3 Zrotation Yrotation Xrotation
			JOINT rankle
			{
				OFFSET 0.019056 -0.420046 -0.034562
				CHANNELS 3 Zrotation Yrotation Xrotation
				JOINT rtoe
				{
					OFFSET -0.034840 -0.062106 0.130323
					CHANNELS 3 Zrotation Yrotation Xrotation
					End Site
					{
						OFFSET 0.000000 0.000000 0.000000
					}
				}
			}
		}
	}
	JOINT lowerback
	{
		OFFSET 0.004439 0.124404 -0.038385
		CHANNELS 3 Zrotation Yrotation Xrotation
		JOINT upperback
		{
			OFFSET 0.004488 0.137956 0.026820
			CHANNELS 3 Zrotation Yrotation Xrotation
			JOINT chest
			{
				OFFSET -0.002265 0.056032 0.002855
				CHANNELS 3 Zrotation Yrotation Xrotation
				JOINT lowerneck
				{
					OFFSET -0.013390 0.211636 -0.033468
					CHANNELS 3 Zrotation Yrotation Xrotation
					JOINT upperneck
					{
						OFFSET 0.010113 0.088937 0.050410
						CHANNELS 3 Zrotation Yrotation Xrotation
						End Site
						{
							OFFSET 0.000000 0.000000 0.000000
						}
					}
				}
				JOINT lclavicle
				{
					OFFSET 0.071702 0.114000 -0.018898
					CHANNELS 3 Zrotation Yrotation Xrotation
					JOINT lshoulder
					{
						OFFSET 0.122921 0.045205 -0.019046
						CHANNELS 3 Zrotation Yrotation Xrotation
						JOINT lelbow
						{
							OFFSET 0.255332 -0.015649 -0.022946
							CHANNELS 3 Zrotation Yrotation Xrotation
							JOINT lwrist
							{
								OFFSET 0.265709 0.012698 -0.007375
								CHANNELS 3 Zrotation Yrotation Xrotation
								End Site
								{
									OFFSET 0.000000 0.000000 0.000000
								}
							}
						}
					}
				}
				JOINT rclavicle
				{
					OFFSET -0.082954 0.112472 -0.023707
					CHANNELS 3 Zrotation Yrotation Xrotation
					JOINT rshoulder
					{
						OFFSET -0.113228 0.046853 -0.008472
						CHANNELS 3 Zrotation Yrotation Xrotation
						JOINT relbow
						{
							OFFSET -0.260127 -0.014369 -0.031269
							CHANNELS 3 Zrotation Yrotation Xrotation
							JOINT rwrist
							{
								OFFSET -0.269108 0.006794 -0.006027
								CHANNELS 3 Zrotation Yrotation Xrotation
								End Site
								{
									OFFSET 0.000000 0.000000 0.000000
								}
							}
						}
					}
				}
			}
		}
	}
}
MOTION
Frames: 11
Frame Time: 0.033333
0.088871 1.574346 0.989746 -0.694425 2.800448 94.507258 2.911607 3.049471 -4.503360 -3.118532 -2.003134 1.246952 5.313960 12.355497 -17.985689 0.000000 -0.000000 0.000000 -1.745870 -0.399649 -20.624460 4.662831 -2.487378 10.875269 5.652448 -6.335494 -7.172432 0.000000 -0.000000 0.000000 -0.583154 -0.678631 14.692282 1.252156 0.119148 -7.302712 1.573422 -2.007932 2.522144 7.149059 -2.969660 -13.814589 4.165943 -12.898917 5.797684 -25.180027 -4.034167 -1.790277 -50.784264 -13.598370 9.887651 5.623851 -27.491393 2.469117 3.099773 -3.982824 -0.250654 23.344939 7.634355 -3.524799 48.307487 12.754077 13.546593 -6.426188 25.408630 -3.385987 1.971754 1.952703 -0.909710 
0.093289 1.576768 0.988831 -1.598976 2.924923 94.241933 2.623819 3.293177 -2.662602 -2.892763 -1.773747 -1.854971 5.104764 12.381067 -16.939595 0.000000 -0.000000 0.000000 -1.947589 -0.140284 -19.757853 4.768161 -2.309632 9.061660 5.959442 -6.212088 -6.180725 0.000000 -0.000000 0.000000 -0.851471 -0.368309 13.782507 1.287501 0.424836 -6.090347 1.805221 -2.214412 2.210034 6.860937 -4.015256 -12.719321 3.747372 -13.641240 5.340641 -25.410882 -4.199051 -1.410558 -50.732691 -13.993625 9.859334 5.692100 -27.760415 2.228371 2.632919 -3.951705 -0.129167 23.301062 7.753421 -3.627872 48.154820 13.293457 13.662358 -6.235484 25.846869 -2.964053 2.467789 1.779134 -0.346971 
0.097386 1.578317 0.987668 -2.442235 3.112870 94.108276 2.546596 3.989039 -0.979748 -2.821830 -1.752545 -4.759052 4.879169 12.064489 -16.004018 0.000000 -0.000000 0.000000 -2.056084 -0.153440 -19.290216 4.903569 -2.305446 7.874194 6.202365 -5.687473 -5.420502 0.000000 -0.000000 0.000000 -0.858290 -0.620117 13.590501 1.247535 0.463383 -6.109941 1.802786 -2.050016 1.961730 6.682949 -4.868177 -11.910828 3.465796 -14.316211 4.987529 -25.373919 -3.706771 -1.483359 -50.851686 -13.681929 9.828674 5.515264 -27.910592 2.755073 2.461371 -3.836998 0.048063 23.174589 7.737990 -3.777614 48.515469 13.483609 13.821232 -5.711772 26.203791 -2.379559 2.670656 1.829353 -0.142042 
0.103038 1.580558 0.985579 -3.696776 3.462919 93.761969 2.569704 5.016244 1.226507 -2.759241 -1.796435 -8.272567 4.661639 11.787999 -15.023514 0.000000 -0.000000 0.000000 -2.084289 0.172009 -19.278279 5.077821 -2.249789 7.598081 6.408416 -5.296109 -5.008003 0.000000 -0.000000 0.000000 -0.939660 -1.056945 13.371446 1.282283 0.671756 -6.036886 1.850775 -2.006788 1.955013 6.818531 -5.543562 -11.931244 3.331542 -15.181896 4.523687 -25.493987 -3.200867 -1.708190 -50.599251 -13.251424 9.659723 5.541495 -27.361154 2.490403 2.462347 -3.948799 0.315745 23.250577 7.733218 -4.038063 48.762457 13.692713 14.268880 -5.388746 26.618286 -1.808624 2.603089 2.275086 0.428474 
0.104880 1.581346 0.985055 -4.157181 3.601483 93.640145 2.609118 5.343202 1.766595 -2.802244 -1.799998 -9.067415 4.673126 11.785450 -14.768792 0.000000 -0.000000 0.000000 -2.057038 0.304799 -19.496474 5.104426 -2.169059 7.935889 6.507238 -5.050140 -4.884972 0.000000 -0.000000 0.000000 -0.988867 -1.207553 13.348956 1.322087 0.733043 -6.030987 1.873069 -1.955579 1.978318 6.882236 -5.576917 -12.083788 3.467515 -15.327767 4.255866 -25.464510 -3.098824 -1.732890 -50.661316 -13.047509 9.598308 5.715369 -27.055382 2.309089 2.303010 -3.982637 0.249852 23.244976 7.728687 -4.104154 48.907541 13.683191 14.347750 -5.340038 26.624933 -1.629992 2.754750 2.219396 0.444120 
0.108519 1.583442 0.984262 -4.882100 3.765370 93.465806 2.400840 5.294662 2.229154 -2.729917 -1.616316 -9.847745 4.855451 12.212375 -14.406729 0.000000 -0.000000 0.000000 -2.067613 0.900757 -20.235349 5.014028 -2.049277 8.950362 6.663834 -5.231411 -4.922811 0.000000 -0.000000 0.000000 -1.281631 -1.397170 13.168051 1.484699 0.850944 -5.854380 2.019352 -2.059172 2.166212 7.212091 -5.693441 -12.440580 3.781145 -15.469341 3.371218 -25.468744 -3.086692 -1.755289 -50.752333 -12.959363 9.518028 6.235009 -25.848221 1.708575 2.278017 -3.850559 0.437677 23.275701 7.677703 -4.167082 49.113474 13.718216 14.592537 -5.435444 26.486537 -1.760888 2.846438 2.158569 0.396604 
0.111945 1.585331 0.984134 -5.334829 3.911082 93.202328 2.195884 5.108925 2.297108 -2.665906 -1.520808 -9.759173 5.033425 12.554952 -14.347978 0.000000 -0.000000 0.000000 -2.006600 1.567390 -20.776838 4.742552 -1.965108 9.915477 6.595559 -5.650052 -4.998488 0.000000 -0.000000 0.000000 -1.625830 -1.540729 13.142510 1.717019 0.834633 -5.645841 2.242529 -2.293147 2.273608 7.717538 -6.208732 -12.321808 4.083074 -15.612670 2.279737 -25.510403 -3.270831 -1.358779 -50.601620 -12.844517 9.331847 6.691314 -24.624593 1.037578 2.154930 -3.709782 0.248194 23.084932 7.613503 -4.079482 49.561170 13.622800 14.804443 -5.692747 26.138299 -1.827730 2.940393 2.060645 0.080866 
0.114947 1.587193 0.984354 -5.616126 3.975913 93.078830 2.017524 5.245826 2.134948 -2.709297 -1.663355 -9.525472 5.137131 12.695408 -14.400808 0.000000 -0.000000 0.000000 -1.931610 2.115932 -21.382089 4.323942 -1.835070 10.851536 6.638516 -5.983676 -5.119789 0.000000 -0.000000 0.000000 -1.889473 -1.993659 13.874115 1.775706 0.617023 -6.369435 2.272858 -2.268736 2.160432 8.178898 -6.341258 -12.455267 4.440084 -15.752541 2.173602 -25.226875 -2.920433 -1.361559 -50.464838 -12.390786 9.198332 6.675435 -23.429175 1.089266 2.372544 -3.661276 0.509654 23.014383 7.343824 -3.982517 50.199463 13.168668 14.946816 -5.568153 25.446766 -1.754820 2.993071 2.022623 -0.073616 
0.117609 1.589706 0.984658 -6.176351 4.066597 92.971786 1.837632 5.483504 1.955859 -2.686641 -1.675220 -9.324268 5.506810 12.996835 -14.360478 0.000000 -0.000000 0.000000 -1.727236 1.810449 -22.361435 4.198368 -1.344724 12.369613 6.793216 -5.563746 -4.915326 0.000000 -0.000000 0.000000 -2.200244 -2.090126 14.267240 1.855062 0.507029 -6.810691 2.317970 -2.246511 2.123287 8.707002 -6.493720 -12.277159 4.856019 -15.955866 2.259157 -25.043404 -2.715980 -1.352781 -50.192236 -12.061579 9.034699 6.546703 -22.513402 1.248364 2.285429 -3.581901 0.895546 23.050423 7.203806 -3.748230 50.417851 12.608339 14.914456 -5.436071 24.701800 -1.524166 3.150292 1.993668 0.192797 
0.120638 1.592208 0.984172 -6.609272 4.151430 92.588311 1.624578 5.254308 2.208748 -2.596844 -1.539940 -9.348908 5.788386 13.459883 -14.440844 0.000000 -0.000000 0.000000 -1.719258 2.012899 -22.766328 4.183992 -1.042824 13.368491 6.634084 -5.726312 -4.926196 0.000000 -0.000000 0.000000 -2.619615 -1.833963 13.784948 2.063340 0.666285 -5.904638 2.470624 -2.475536 2.296353 9.156247 -6.860126 -11.646124 5.339450 -16.146146 2.164702 -25.033059 -3.377481 -0.732318 -49.765925 -12.362953 8.930985 6.639951 -21.704170 0.675074 1.762755 -3.352877 1.070939 22.832957 7.134559 -3.523324 50.403044 12.061227 14.890084 -5.445018 24.245425 -1.484330 3.544644 1.829564 0.266448 
0.123767 1.593559 0.983558 -6.844372 4.270991 92.381053 1.496670 5.103636 2.366396 -2.596511 -1.663792 -9.456249 6.075830 13.813369 -14.446610 0.000000 -0.000000 0.000000 -1.723287 2.004357 -23.159513 4.251872 -0.784899 14.140516 6.652190 -5.896513 -5.118335 0.000000 -0.000000 0.000000 -2.742028 -1.868924 13.602985 2.205674 0.622927 -5.572933 2.410689 -2.494027 2.281937 9.634630 -7.257176 -11.121560 5.640402 -16.554772 2.815582 -25.243312 -3.322980 -0.608389 -49.243885 -12.486949 8.753568 6.721282 -21.169430 0.246013 1.702036 -3.225425 1.444383 22.888847 6.883065 -3.329673 50.228796 11.402862 14.990254 -5.287696 23.297813 -1.075682 3.919254 1.886608 0.912951 
